<?xml version="1.0" encoding="UTF-8"?>
<svg id="_레이어_2" data-name="레이어 2" xmlns="http://www.w3.org/2000/svg" viewBox="0 0 127.56 127.56">
  <defs>
    <style>
      .cls-1 {
        fill: #fbfbfb;
      }

      .cls-2 {
        fill: #604d9d;
      }
    </style>
  </defs>
  <g id="_2번" data-name="2번">
    <g>
      <rect class="cls-2" width="127.56" height="127.56" rx="5.67" ry="5.67"/>
      <path class="cls-1" d="M82.58,29.49c.8,0,1.45.65,1.45,1.45v38.23c0,14.13-7.39,26.54-18.52,33.58-.7.45-1.64.23-2.05-.49l-4.99-8.65c-.38-.66-.19-1.51.45-1.93,6.97-4.51,11.7-12.17,12.2-20.96.05-.84-.61-1.55-1.45-1.55h-23.87c-.8,0-1.45-.65-1.45-1.45V30.94c0-.8.65-1.45,1.45-1.45h36.78Z"/>
    </g>
  </g>
</svg>