<?xml version="1.0" encoding="UTF-8"?>
<svg id="_레이어_2" data-name="레이어 2" xmlns="http://www.w3.org/2000/svg" viewBox="0 0 195.34 50">
  <defs>
    <style>
      .cls-1 {
        stroke: #231815;
        stroke-miterlimit: 10;
      }

      .cls-1, .cls-2 {
        fill: #8174b4;
      }
    </style>
  </defs>
  <g id="c">
    <g>
      <path class="cls-2" d="M28,15.78h0c0-4.23-3.43-7.66-7.65-7.66h-5.7c-4.22,0-7.64,3.42-7.64,7.64v18.46c0,4.23,3.43,7.65,7.65,7.65h5.69c4.23,0,7.66-3.43,7.66-7.66h0c0-.37.3-.66.66-.66h5.67c.37,0,.66.3.66.66v2.69c0,7.23-5.86,13.09-13.09,13.09h-9.51c-6.85,0-12.41-5.56-12.41-12.42V12.42C0,5.56,5.56,0,12.41,0h9.51c7.23,0,13.09,5.86,13.09,13.09v2.69c0,.37-.3.66-.66.66h-5.67c-.37,0-.66-.3-.66-.66Z"/>
      <path class="cls-2" d="M115.17,9.64v39.64c0,.4-.32.72-.72.72h-5.56c-.4,0-.72-.32-.72-.72V11.6c0-1.92-1.55-3.48-3.48-3.48h-1.27c-.35,0-.65.26-.71.61l-2.82,17.61c-.41,2.51-4.03,2.51-4.44,0l-2.76-17.21c-.07-.46-.55-.73-.98-.56-2.65.98-4.54,3.54-4.54,6.54v34.17c0,.4-.32.72-.72.72h-5.56c-.4,0-.72-.32-.72-.72V8.92c0-4.93,4-8.92,8.92-8.92h16.44c5.32,0,9.64,4.32,9.64,9.64Z"/>
      <path class="cls-2" d="M155.25,9.64v39.64c0,.4-.32.72-.72.72h-5.56c-.4,0-.72-.32-.72-.72V11.6c0-1.92-1.55-3.48-3.48-3.48h-1.27c-.35,0-.65.26-.71.61l-2.82,17.61c-.41,2.51-4.03,2.51-4.44,0l-2.76-17.21c-.07-.46-.55-.73-.98-.56-2.65.98-4.54,3.54-4.54,6.54v34.17c0,.4-.32.72-.72.72h-5.56c-.4,0-.72-.32-.72-.72V8.92c0-4.93,4-8.92,8.92-8.92h16.44c5.32,0,9.64,4.32,9.64,9.64Z"/>
      <g>
        <path class="cls-2" d="M62.66,0h-10.16c-6.86,0-12.42,5.56-12.42,12.42v25.16c0,6.86,5.56,12.42,12.42,12.42h10.16c6.86,0,12.42-5.56,12.42-12.42V12.42c0-6.86-5.56-12.42-12.42-12.42ZM68.08,34.89c0,3.86-3.12,6.99-6.98,6.99h-7.04c-3.85,0-6.98-3.13-6.98-6.99V15.11c0-3.86,3.13-6.99,6.98-6.99h7.04c3.86,0,6.98,3.13,6.98,6.99v19.78Z"/>
        <path class="cls-2" d="M60.73,16.92c.84,0,1.51.68,1.51,1.51v7.81c0,2.81-1.24,5.32-3.2,7.03-.75.66-1.79.47-2.29-.39h0c-.34-.58-.21-1.44.3-1.88.85-.74,1.5-1.69,1.86-2.78s-.29-1.98-1.43-1.98h-2.68c-1.19,0-1.87-.68-1.87-1.51v-6.3c0-.84.68-1.51,1.51-1.51h6.3Z"/>
      </g>
      <path class="cls-2" d="M179.79,11.74c.52,0,.94.42.94.94v4.83c0,1.74-.77,3.29-1.98,4.35-.47.41-1.11.29-1.42-.24h0c-.21-.36-.13-.89.18-1.16.52-.45.93-1.05,1.15-1.72s-.18-1.22-.89-1.22h-1.66c-.74,0-1.15-.42-1.15-.94v-3.9c0-.52.42-.94.94-.94h3.9Z"/>
      <path class="cls-2" d="M182.35,0h-9.02c-7.17,0-12.99,5.82-12.99,12.99v33.51c0,1.93,1.56,3.5,3.5,3.5.97,0,1.84-.39,2.47-1.03.16-.16.3-.33.43-.52h0c.38-.56.6-1.23.6-1.95v-12c0-.13.01-.27.03-.4h0s3.7-1.72,3.7-1.72c4.29-1.99,9.25-1.99,13.54,0l3.7,1.71h0c.02.14.03.28.03.41v12c0,.72.22,1.4.59,1.95.63.94,1.7,1.55,2.91,1.55.97,0,1.84-.39,2.47-1.03.64-.63,1.03-1.51,1.03-2.47V12.99c0-7.17-5.82-12.99-12.99-12.99ZM188.34,26.3c0,.42-.43.69-.81.52l-2.92-1.35c-4.29-1.99-9.25-1.99-13.54,0l-2.92,1.35c-.38.17-.81-.1-.81-.52v-10.62c0-4.18,3.38-7.56,7.56-7.56h5.88c4.18,0,7.56,3.38,7.56,7.56v10.62Z"/>
      <line class="cls-1" x1="167.36" y1="25" x2="167.34" y2="25"/>
      <line class="cls-1" x1="188.34" y1="25" x2="188.32" y2="25"/>
    </g>
  </g>
</svg>